<svg preserveAspectRatio="none" width="100%" height="100%" overflow="visible" style="display: block;" viewBox="0 0 61.3405 25.8333" fill="none" xmlns="http://www.w3.org/2000/svg">
<g id="Frame 1321315843">
<g id="Group 1171276345">
<path id="Vector" d="M14.1672 0C13.58 0 13.0347 0.304038 12.7271 0.803846L9.41263 5.71758C9.30464 5.87954 9.34845 6.09787 9.51065 6.20571C9.6421 6.29321 9.81598 6.28237 9.93574 6.17954L13.1983 3.35388C13.2525 3.30517 13.336 3.31012 13.3848 3.36425C13.407 3.38904 13.4187 3.42108 13.4187 3.454V12.3009C13.4187 12.3739 13.3595 12.4325 13.2863 12.4325C13.247 12.4325 13.21 12.4154 13.1851 12.3852L3.32305 0.59725C3.00187 0.218779 2.53024 0.00045 2.03377 0H1.68909C0.756223 0 0 0.755129 0 1.68664V14.1467C0 15.0782 0.756223 15.8333 1.68909 15.8333C2.27635 15.8333 2.82162 15.5293 3.12925 15.0295L6.44374 10.1157C6.55169 9.95379 6.50788 9.7355 6.34568 9.62767C6.21423 9.54017 6.04031 9.551 5.92063 9.65383L2.65808 12.4795C2.60387 12.5282 2.5203 12.5232 2.47151 12.4691C2.44937 12.4442 2.43763 12.4122 2.43808 12.3793V3.53025C2.43808 3.45717 2.49726 3.39854 2.57044 3.39854C2.60929 3.39854 2.64679 3.41567 2.67164 3.44587L12.5324 15.2361C12.8536 15.6145 13.3252 15.8329 13.8217 15.8333H14.1663C15.0992 15.8338 15.8559 15.0791 15.8568 14.1476V1.68664C15.8568 0.755129 15.1001 0 14.1672 0Z" fill="var(--fill-0, black)"/>
<path id="Vector_2" d="M26.3367 2.91602C25.269 2.91602 24.4927 3.17097 23.8331 3.7591L22.6683 4.77852C22.5713 4.85714 22.3771 4.91593 22.2415 4.79797C22.1054 4.68043 22.0862 4.52356 22.2026 4.36668L22.8236 3.42552C22.9207 3.2881 22.8433 3.11181 22.6683 3.11181H21.1738C20.9993 3.11181 20.8633 3.24918 20.8633 3.42552V12.6023C20.8633 12.7786 20.9993 12.916 21.1738 12.916H22.7265C22.9011 12.916 23.0371 12.7786 23.0371 12.6023V7.42572C23.0371 5.05335 24.9974 4.68085 25.7349 4.68085C27.3068 4.68085 27.8697 5.81818 27.8697 6.68072V12.6023C27.8697 12.7786 28.0057 12.916 28.1803 12.916H29.7329C29.9075 12.916 30.0435 12.7786 30.0435 12.6023V6.48456C30.0435 4.28847 28.6268 2.91602 26.3367 2.91602Z" fill="var(--fill-0, black)"/>
<path id="Vector_3" d="M36.3342 2.91602C33.2602 2.91602 31.2969 4.7291 31.2969 7.19072V8.54585C31.2969 11.1412 33.2602 12.916 36.3342 12.916C39.0511 12.916 40.955 11.5609 41.1535 9.72893C41.1735 9.53797 41.0346 9.40464 40.8361 9.40464H39.2893C39.1503 9.40464 39.0314 9.48118 38.9916 9.61447C38.7932 10.2252 37.8613 11.1412 36.3342 11.1412C34.807 11.1412 33.3791 10.0725 33.3988 8.54585L33.4188 6.84756C33.4386 5.56897 34.8271 4.69122 36.3342 4.69122C37.7027 4.69122 39.0314 5.43564 39.17 6.65702C39.1815 6.79822 39.0806 6.92564 38.9359 6.95247L34.4893 7.78289C34.311 7.8211 34.172 7.97381 34.172 8.16435V8.18327C34.172 8.35489 34.3503 8.50756 34.6082 8.50756H40.9944C41.1698 8.50756 41.3117 8.37068 41.3117 8.20218V7.00022C41.3117 4.72952 39.2688 2.91639 36.3338 2.91639L36.3342 2.91602Z" fill="var(--fill-0, black)"/>
<path id="Vector_4" d="M47.5774 2.91643C45.0082 2.91643 42.7891 4.31743 42.7891 6.16006C42.7891 6.31364 42.933 6.42868 43.1179 6.42868H44.7825C44.9469 6.42868 45.07 6.31364 45.0908 6.16006C45.2552 5.31572 46.3448 4.70152 47.5161 4.70152C48.9131 4.70152 49.8591 5.50777 49.8591 6.88977V8.55981C49.8591 10.2679 48.5025 11.1317 46.8171 11.1317C45.5018 11.1317 44.7411 10.6711 44.7411 9.92231C44.7411 9.2696 45.1113 8.71293 46.6319 8.38677L48.8309 7.8301C49.0567 7.77256 49.1393 7.5996 49.098 7.40793C49.0776 7.25439 48.8927 7.17743 48.7279 7.17743H46.447C44.515 7.17743 42.5625 8.32885 42.5625 10.0179V10.2866C42.5625 12.0141 44.3097 12.916 46.303 12.916C47.577 12.916 48.6665 12.4553 49.3446 11.9181L50.3519 11.1119C50.5163 10.9774 50.6808 10.9774 50.8243 11.1119C50.9474 11.2269 50.9061 11.3999 50.8034 11.5341L50.1871 12.4363C50.084 12.5708 50.1662 12.7434 50.3515 12.7434H51.8312C52.0161 12.7434 52.16 12.6089 52.16 12.4363V6.62031C52.16 4.39402 50.4542 2.91602 47.5766 2.91602L47.5774 2.91643Z" fill="var(--fill-0, black)"/>
<path id="Vector_5" d="M60.995 2.91602H58.5747C57.7327 2.91602 56.9115 3.39602 56.3281 3.85614L55.3779 4.61602C55.2699 4.69622 55.0754 4.75618 54.9456 4.65614C54.7942 4.5561 54.7295 4.35597 54.8597 4.19597L55.5507 3.23602C55.6588 3.09585 55.5728 2.91602 55.3779 2.91602H53.7576C53.5636 2.91602 53.4121 3.05618 53.4121 3.23602V12.596C53.4121 12.7758 53.5636 12.916 53.7576 12.916H55.5294C55.7234 12.916 55.8749 12.7758 55.8749 12.596V7.79614C55.8749 5.73602 56.7825 4.81614 58.7488 4.81614H60.995C61.189 4.81614 61.3405 4.67597 61.3405 4.49614V3.23602C61.3405 3.05618 61.189 2.91602 60.995 2.91602Z" fill="var(--fill-0, black)"/>
</g>
<path id="Vector_6" d="M0 22.8333C0 20.9242 1.15752 19.8333 3.07823 19.8333C4.97351 19.8333 5.78335 20.9363 5.83423 21.8226V21.943H4.86327C4.81663 21.4015 4.37567 20.6635 3.09519 20.6635C1.802 20.6635 1.06 21.4537 1.06 22.8333C1.06 24.213 1.802 24.9991 3.09519 24.9991C4.37991 24.9991 4.82087 24.2451 4.88447 23.6836H5.85543V23.8039C5.77911 24.7224 4.98199 25.8333 3.07823 25.8333C1.15752 25.8333 0 24.7424 0 22.8333ZM6.709 21.578H7.71387V25.721H6.709V21.578ZM6.67084 20.9603V20.086H7.74779V20.9603H6.67084ZM8.41798 21.578H9.39318V20.4791H10.3981V21.578H11.6361V22.3119H10.3981V24.8708L10.4659 24.9349H11.6149V25.721H10.6013C9.84262 25.721 9.39318 25.352 9.39318 24.6462V22.3119H8.41798V21.578ZM12.456 21.578H13.4609V25.721H12.456V21.578ZM12.4179 20.9603V20.086H13.4948V20.9603H12.4179ZM14.4406 21.578H18.1633V22.2397L15.5854 25.0031H18.2142V25.721H14.3558V25.0593L16.9337 22.2959H14.4406V21.578ZM18.74 23.6475C18.74 22.2197 19.6049 21.4817 20.9321 21.4817C22.2507 21.4817 23.0139 22.2357 23.0139 23.4831V23.9082H19.7025C19.7194 24.602 20.1731 25.0873 20.9278 25.0873C21.6571 25.0873 21.9751 24.7184 22.0429 24.4055H22.9248V24.5258C22.8061 25.0673 22.2804 25.8173 20.9405 25.8173C19.6092 25.8173 18.74 25.0753 18.74 23.6475ZM19.7152 23.2023H22.0684C22.0599 22.6368 21.6783 22.2037 20.9193 22.2037C20.1816 22.2037 19.7703 22.6488 19.7152 23.2023ZM23.8842 21.578H24.8551V22.0352H24.9229C25.224 21.6462 25.7116 21.4897 26.3052 21.4897C27.3397 21.4897 27.9757 21.9911 27.9757 23.0098V25.721H26.9709V23.094C26.9709 22.5205 26.6444 22.2518 26.0508 22.2518C25.4021 22.2518 24.889 22.6007 24.889 23.4029V25.721H23.8842V21.578ZM28.8481 22.709C28.8481 21.959 29.5265 21.4857 30.718 21.4857C31.9136 21.4857 32.6132 21.959 32.6853 22.7331V22.8534H31.7695C31.7398 22.3681 31.32 22.1996 30.7222 22.1996C30.1286 22.1996 29.8021 22.3681 29.8021 22.6889C29.8021 23.0098 30.0735 23.1141 30.4508 23.1702L31.2734 23.2906C32.1468 23.4189 32.7447 23.7598 32.7447 24.5138C32.7447 25.2678 32.1129 25.8133 30.8409 25.8133C29.5689 25.8133 28.8312 25.2678 28.7676 24.5339V24.4135H29.7004C29.7428 24.8988 30.2134 25.0994 30.8409 25.0994C31.4684 25.0994 31.7864 24.8908 31.7864 24.566C31.7864 24.2451 31.5108 24.1127 31.0487 24.0446L30.2261 23.9242C29.4036 23.8039 28.8481 23.459 28.8481 22.709ZM35.8438 19.9456H36.8869V22.3881H39.8464V19.9456H40.8937V25.721H39.8464V23.2464H36.8869V25.721H35.8438V19.9456ZM41.8281 23.6475C41.8281 22.2357 42.7778 21.4817 44.1346 21.4817C45.4957 21.4817 46.4454 22.2357 46.4454 23.6475C46.4454 25.0633 45.4957 25.8173 44.1346 25.8173C42.7778 25.8173 41.8281 25.0633 41.8281 23.6475ZM42.8457 23.6475C42.8457 24.574 43.3587 25.0713 44.1346 25.0713C44.9148 25.0713 45.4278 24.574 45.4278 23.6475C45.4278 22.725 44.9148 22.2277 44.1346 22.2277C43.3587 22.2277 42.8457 22.725 42.8457 23.6475ZM51.3484 25.721H50.3775V25.2638H50.3096C50.0128 25.6488 49.5253 25.8093 48.9356 25.8093C47.9056 25.8093 47.2738 25.3079 47.2738 24.2852V21.578H48.2787V24.205C48.2787 24.7785 48.5967 25.0472 49.1903 25.0472C49.839 25.0472 50.3436 24.6983 50.3436 23.8962V21.578H51.3484V25.721ZM52.2592 22.709C52.2592 21.959 52.9376 21.4857 54.1291 21.4857C55.3248 21.4857 56.0244 21.959 56.0964 22.7331V22.8534H55.1806C55.1509 22.3681 54.7312 22.1996 54.1333 22.1996C53.5397 22.1996 53.2132 22.3681 53.2132 22.6889C53.2132 23.0098 53.4846 23.1141 53.862 23.1702L54.6845 23.2906C55.558 23.4189 56.1558 23.7598 56.1558 24.5138C56.1558 25.2678 55.524 25.8133 54.252 25.8133C52.98 25.8133 52.2423 25.2678 52.1787 24.5339V24.4135H53.1115C53.1539 24.8988 53.6245 25.0994 54.252 25.0994C54.8796 25.0994 55.1976 24.8908 55.1976 24.566C55.1976 24.2451 54.922 24.1127 54.4598 24.0446L53.6372 23.9242C52.8147 23.8039 52.2592 23.459 52.2592 22.709ZM56.7261 23.6475C56.7261 22.2197 57.591 21.4817 58.9182 21.4817C60.2368 21.4817 61 22.2357 61 23.4831V23.9082H57.6886C57.7055 24.602 58.1592 25.0873 58.9139 25.0873C59.6432 25.0873 59.9612 24.7184 60.029 24.4055H60.911V24.5258C60.7922 25.0673 60.2665 25.8173 58.9266 25.8173C57.5953 25.8173 56.7261 25.0753 56.7261 23.6475ZM57.7013 23.2023H60.0545C60.046 22.6368 59.6644 22.2037 58.9054 22.2037C58.1677 22.2037 57.7564 22.6488 57.7013 23.2023Z" fill="var(--fill-0, black)"/>
</g>
</svg>
