<svg preserveAspectRatio="none" width="100%" height="100%" overflow="visible" style="display: block;" viewBox="0 0 405 48" fill="none" xmlns="http://www.w3.org/2000/svg">
<style>
  .logo-fill { fill: black; }
  @media (prefers-color-scheme: dark) {
    .logo-fill { fill: white; }
  }
</style>
<g id="logo Near_Citizens House 1">
<path class="logo-fill" id="Vector" d="M33.951 5C32.5437 5 31.237 5.72969 30.4998 6.92923L22.5569 18.7222C22.2981 19.1109 22.4031 19.6349 22.7918 19.8937C23.1068 20.1037 23.5235 20.0777 23.8105 19.8309L31.629 13.0493C31.7589 12.9324 31.9591 12.9443 32.076 13.0742C32.1291 13.1337 32.1573 13.2106 32.1573 13.2896V34.5221C32.1573 34.6974 32.0154 34.8381 31.84 34.8381C31.7458 34.8381 31.6572 34.797 31.5975 34.7245L7.96353 6.4334C7.19382 5.52507 6.06359 5.00108 4.87382 5H4.04781C1.81225 5 0 6.81231 0 9.04793V38.952C0 41.1877 1.81225 43 4.04781 43C5.45517 43 6.76186 42.2704 7.4991 41.0708L15.4421 29.2778C15.7008 28.8891 15.5958 28.3652 15.2071 28.1064C14.8921 27.8964 14.4753 27.9224 14.1885 28.1692L6.36995 34.9508C6.24005 35.0677 6.03977 35.0557 5.92286 34.9258C5.8698 34.8662 5.84166 34.7894 5.84274 34.7104V13.4726C5.84274 13.2972 5.98455 13.1565 6.15993 13.1565C6.25304 13.1565 6.34289 13.1976 6.40244 13.2701L30.0333 41.5666C30.8029 42.4749 31.9332 42.999 33.123 43H33.9489C36.1845 43.0011 37.9979 41.1899 38 38.9543V9.04793C38 6.81231 36.1866 5 33.951 5Z"/>
<path class="logo-fill" id="Vector_2" d="M63.1167 12C60.5582 12 58.6976 12.6119 57.117 14.0234L54.3257 16.47C54.0931 16.6587 53.6278 16.7998 53.3028 16.5167C52.9767 16.2346 52.9306 15.8581 53.2095 15.4816L54.6978 13.2228C54.9305 12.893 54.745 12.4699 54.3257 12.4699H50.7442C50.3259 12.4699 50 12.7996 50 13.2228V35.247C50 35.6702 50.3259 36 50.7442 36H54.4652C54.8835 36 55.2094 35.6702 55.2094 35.247V22.8233C55.2094 17.1296 59.9072 16.2356 61.6745 16.2356C65.4416 16.2356 66.7906 18.9652 66.7906 21.0353V35.247C66.7906 35.6702 67.1165 36 67.5348 36H71.2557C71.674 36 72 35.6702 72 35.247V20.5645C72 15.2939 68.605 12 63.1167 12Z"/>
<path class="logo-fill" id="Vector_3" d="M87.0717 12C79.7051 12 75 16.3514 75 22.2593V25.5116C75 31.7404 79.7051 36 87.0717 36C93.5826 36 98.1452 32.7478 98.6208 28.351C98.6689 27.8927 98.3359 27.5727 97.8603 27.5727H94.1534C93.8204 27.5727 93.5354 27.7564 93.4401 28.0763C92.9646 29.542 90.7314 31.7404 87.0717 31.7404C83.4119 31.7404 79.9899 29.1756 80.0372 25.5116L80.0852 21.4357C80.1325 18.3671 83.4601 16.2605 87.0717 16.2605C90.3513 16.2605 93.5354 18.0471 93.8675 20.9784C93.895 21.3173 93.6533 21.6231 93.3066 21.6875L82.6506 23.6805C82.2232 23.7722 81.8902 24.1387 81.8902 24.596V24.6414C81.8902 25.0533 82.3174 25.4197 82.9354 25.4197H98.2396C98.66 25.4197 99 25.0912 99 24.6868V21.8021C99 16.3524 94.1043 12.0009 87.0707 12.0009L87.0717 12Z"/>
<path class="logo-fill" id="Vector_4" d="M114.018 12.001C107.861 12.001 102.543 15.3634 102.543 19.7857C102.543 20.1543 102.888 20.4304 103.331 20.4304H107.32C107.714 20.4304 108.009 20.1543 108.059 19.7857C108.453 17.7593 111.064 16.2852 113.871 16.2852C117.219 16.2852 119.486 18.2202 119.486 21.537V25.5451C119.486 29.6446 116.235 31.7177 112.196 31.7177C109.044 31.7177 107.221 30.6121 107.221 28.8151C107.221 27.2486 108.108 25.9126 111.752 25.1298L117.022 23.7938C117.563 23.6557 117.761 23.2406 117.662 22.7806C117.613 22.4121 117.17 22.2274 116.775 22.2274H111.309C106.679 22.2274 102 24.9908 102 29.0446V29.6893C102 33.8355 106.187 36 110.964 36C114.017 36 116.628 34.8944 118.253 33.6051L120.667 31.6701C121.061 31.3473 121.455 31.3473 121.799 31.6701C122.094 31.9462 121.995 32.3613 121.749 32.6833L120.272 34.8487C120.025 35.1715 120.222 35.5858 120.666 35.5858H124.212C124.655 35.5858 125 35.2629 125 34.8487V20.8903C125 15.5472 120.912 12 114.016 12L114.018 12.001Z"/>
<path class="logo-fill" id="Vector_5" d="M146.172 12H140.372C138.354 12 136.386 13.152 134.988 14.2563L132.711 16.08C132.452 16.2725 131.986 16.4164 131.675 16.1763C131.312 15.9362 131.157 15.4559 131.469 15.0719L133.125 12.768C133.384 12.4316 133.178 12 132.711 12H128.828C128.363 12 128 12.3364 128 12.768V35.232C128 35.6636 128.363 36 128.828 36H133.074C133.539 36 133.902 35.6636 133.902 35.232V23.7123C133.902 18.768 136.077 16.5603 140.789 16.5603H146.172C146.637 16.5603 147 16.2239 147 15.7923V12.768C147 12.3364 146.637 12 146.172 12Z"/>
<path class="logo-fill" id="Vector_6" d="M160 36H159V12H160V36Z"/>
<path class="logo-fill" id="Vector_7" d="M173.248 22.4797C173.248 14.8637 177.616 10.5117 184.864 10.5117C192.016 10.5117 195.072 14.9117 195.264 18.4477V18.9277H191.6C191.424 16.7677 189.76 13.8237 184.928 13.8237C180.048 13.8237 177.248 16.9757 177.248 22.4797C177.248 27.9837 180.048 31.1197 184.928 31.1197C189.776 31.1197 191.44 28.1117 191.68 25.8717H195.344V26.3517C195.056 30.0157 192.048 34.4477 184.864 34.4477C177.616 34.4477 173.248 30.0957 173.248 22.4797ZM198.565 17.4717H202.357V33.9997H198.565V17.4717ZM198.421 15.0077V11.5197H202.485V15.0077H198.421ZM205.014 17.4717H208.694V13.0877H212.486V17.4717H217.158V20.3997H212.486V30.6077L212.742 30.8637H217.078V33.9997H213.253C210.39 33.9997 208.694 32.5277 208.694 29.7117V20.3997H205.014V17.4717ZM220.252 17.4717H224.044V33.9997H220.252V17.4717ZM220.108 15.0077V11.5197H224.172V15.0077H220.108ZM227.741 17.4717H241.789V20.1117L232.061 31.1357H241.981V33.9997H227.421V31.3597L237.149 20.3357H227.741V17.4717ZM243.965 25.7277C243.965 20.0317 247.229 17.0877 252.237 17.0877C257.213 17.0877 260.093 20.0957 260.093 25.0717V26.7677H247.597C247.661 29.5357 249.373 31.4717 252.221 31.4717C254.973 31.4717 256.173 29.9997 256.429 28.7517H259.757V29.2317C259.309 31.3917 257.325 34.3837 252.269 34.3837C247.245 34.3837 243.965 31.4237 243.965 25.7277ZM247.645 23.9517H256.525C256.493 21.6957 255.053 19.9677 252.189 19.9677C249.405 19.9677 247.853 21.7437 247.645 23.9517ZM263.377 17.4717H267.041V19.2957H267.297C268.433 17.7437 270.273 17.1197 272.513 17.1197C276.417 17.1197 278.817 19.1197 278.817 23.1837V33.9997H275.025V23.5197C275.025 21.2317 273.793 20.1597 271.553 20.1597C269.105 20.1597 267.169 21.5517 267.169 24.7517V33.9997H263.377V17.4717ZM282.109 21.9837C282.109 18.9917 284.669 17.1037 289.165 17.1037C293.677 17.1037 296.317 18.9917 296.589 22.0797V22.5597H293.133C293.021 20.6237 291.437 19.9517 289.181 19.9517C286.941 19.9517 285.709 20.6237 285.709 21.9037C285.709 23.1837 286.733 23.5997 288.157 23.8237L291.261 24.3037C294.557 24.8157 296.813 26.1757 296.813 29.1837C296.813 32.1917 294.429 34.3677 289.629 34.3677C284.829 34.3677 282.045 32.1917 281.805 29.2637V28.7837H285.325C285.485 30.7197 287.261 31.5197 289.629 31.5197C291.997 31.5197 293.197 30.6877 293.197 29.3917C293.197 28.1117 292.157 27.5837 290.413 27.3117L287.309 26.8317C284.205 26.3517 282.109 24.9757 282.109 21.9837ZM308.508 10.9597H312.444V20.7037H323.612V10.9597H327.564V33.9997H323.612V24.1277H312.444V33.9997H308.508V10.9597ZM331.09 25.7277C331.09 20.0957 334.674 17.0877 339.794 17.0877C344.93 17.0877 348.514 20.0957 348.514 25.7277C348.514 31.3757 344.93 34.3837 339.794 34.3837C334.674 34.3837 331.09 31.3757 331.09 25.7277ZM334.93 25.7277C334.93 29.4237 336.866 31.4077 339.794 31.4077C342.738 31.4077 344.674 29.4237 344.674 25.7277C344.674 22.0477 342.738 20.0637 339.794 20.0637C336.866 20.0637 334.93 22.0477 334.93 25.7277ZM367.016 33.9997H363.352V32.1757H363.096C361.976 33.7117 360.136 34.3517 357.911 34.3517C354.024 34.3517 351.64 32.3517 351.64 28.2717V17.4717H355.432V27.9517C355.432 30.2397 356.632 31.3117 358.872 31.3117C361.32 31.3117 363.224 29.9197 363.224 26.7197V17.4717H367.016V33.9997ZM370.453 21.9837C370.453 18.9917 373.013 17.1037 377.509 17.1037C382.021 17.1037 384.661 18.9917 384.933 22.0797V22.5597H381.477C381.365 20.6237 379.781 19.9517 377.525 19.9517C375.285 19.9517 374.053 20.6237 374.053 21.9037C374.053 23.1837 375.077 23.5997 376.501 23.8237L379.605 24.3037C382.901 24.8157 385.157 26.1757 385.157 29.1837C385.157 32.1917 382.773 34.3677 377.973 34.3677C373.173 34.3677 370.389 32.1917 370.149 29.2637V28.7837H373.669C373.829 30.7197 375.605 31.5197 377.973 31.5197C380.341 31.5197 381.541 30.6877 381.541 29.3917C381.541 28.1117 380.501 27.5837 378.757 27.3117L375.653 26.8317C372.549 26.3517 370.453 24.9757 370.453 21.9837ZM387.309 25.7277C387.309 20.0317 390.573 17.0877 395.581 17.0877C400.557 17.0877 403.437 20.0957 403.437 25.0717V26.7677H390.941C391.005 29.5357 392.717 31.4717 395.565 31.4717C398.317 31.4717 399.517 29.9997 399.773 28.7517H403.101V29.2317C402.653 31.3917 400.669 34.3837 395.613 34.3837C390.589 34.3837 387.309 31.4237 387.309 25.7277ZM390.989 23.9517H399.869C399.837 21.6957 398.397 19.9677 395.533 19.9677C392.749 19.9677 391.197 21.7437 390.989 23.9517Z"/>
</g>
</svg>
